<svg width="17" height="16" viewBox="0 0 17 16" fill="none" xmlns="http://www.w3.org/2000/svg">
<path d="M6.889 13.3336L5.11122 11.5558V12.4447L3.33344 12.4447V10.6669H1.55566L1.55566 14.2225L5.11122 14.2224V15.1113L6.889 13.3336Z" fill="white"/>
<path d="M10.444 2.66645L12.2218 4.44423L12.2218 3.55534L13.9996 3.55534L13.9996 5.33313L15.7773 5.33313L15.7773 1.77756L12.2218 1.77756L12.2218 0.888672L10.444 2.66645Z" fill="white"/>
<rect x="8.66623" y="8.00022" width="7.11111" height="7.11111" stroke="white" stroke-width="1.77778" stroke-dasharray="8.89 3.56"/>
<path opacity="0.5" fill-rule="evenodd" clip-rule="evenodd" d="M7.77789 1.77756L7.77789 4.44423L9.55566 4.44423L9.55566 -0.000217676L6.38032 -0.000217954L6.38032 1.77756L7.77789 1.77756ZM0.666775 -0.000218453L0.666775 5.33312L2.44455 5.33312L2.44455 1.77756L6.38032 1.77756L6.38032 -0.000217954L0.666775 -0.000218453ZM0.666775 5.33312L0.666775 8.88867L5.11122 8.88867L5.11122 7.11089L2.44455 7.11089L2.44455 5.33312L0.666775 5.33312Z" fill="white"/>
</svg>
