<svg width="16" height="16" viewBox="0 0 16 16" fill="none" xmlns="http://www.w3.org/2000/svg">
<g clip-path="url(#clip0_1244_166)">
<path opacity="0.5" d="M15 7V15H1V7L4.52539 3.64551C4.7239 4.21879 5.06734 4.72388 5.51172 5.11816L2.77734 7.83496V13.2227H13.2227V7.85742L10.2393 5.04004C10.6704 4.63147 10.9982 4.11512 11.1777 3.5332L15 7Z" fill="white"/>
<path d="M7.83301 0C9.21372 0 10.333 1.11929 10.333 2.5C10.333 3.88071 9.21372 5 7.83301 5C6.4523 5 5.33301 3.88071 5.33301 2.5C5.33301 1.11929 6.4523 0 7.83301 0ZM7.33301 1V2H6.33301V3H7.33301V4H8.33301V3H9.33301V2H8.33301V1H7.33301Z" fill="white"/>
<path d="M0 7C0 5.89543 0.895431 5 2 5C3.10457 5 4 5.89543 4 7C4 8.10457 3.10457 9 2 9C0.895431 9 0 8.10457 0 7Z" fill="white"/>
<path d="M12 7C12 5.89543 12.8954 5 14 5C15.1046 5 16 5.89543 16 7C16 8.10457 15.1046 9 14 9C12.8954 9 12 8.10457 12 7Z" fill="white"/>
<path d="M12 14C12 12.8954 12.8954 12 14 12C15.1046 12 16 12.8954 16 14C16 15.1046 15.1046 16 14 16C12.8954 16 12 15.1046 12 14Z" fill="white"/>
<path d="M0 14C0 12.8954 0.895431 12 2 12C3.10457 12 4 12.8954 4 14C4 15.1046 3.10457 16 2 16C0.895431 16 0 15.1046 0 14Z" fill="white"/>
</g>
<defs>
<clipPath id="clip0_1244_166">
<rect width="16" height="16" fill="white"/>
</clipPath>
</defs>
</svg>
