<svg width="64" height="64" viewBox="0 0 64 64" fill="none" xmlns="http://www.w3.org/2000/svg">
<path d="M49.3896 12.9726C50.0222 12.3425 51.0477 12.3425 51.6802 12.9726L57.0256 18.2972C57.6582 18.9273 57.6581 19.9488 57.0256 20.5789L31.5956 45.9108C31.4855 46.0204 31.3625 46.1093 31.2328 46.1808L26.3678 51.0274C25.7352 51.6575 24.7098 51.6575 24.0772 51.0274L6.97441 33.991C6.34188 33.3609 6.34185 32.3394 6.97441 31.7093L12.3197 26.3847C12.9524 25.7545 13.9783 25.7545 14.6109 26.3847L24.9144 36.6487C25.1095 36.8431 25.4251 36.8431 25.6202 36.6488L49.3896 12.9726Z" fill="white"/>
</svg>
