<svg width="64" height="64" viewBox="0 0 64 64" fill="none" xmlns="http://www.w3.org/2000/svg">
<path fill-rule="evenodd" clip-rule="evenodd" d="M55.4783 17C57.4233 17 59 18.6118 59 20.6V43.4C59 45.3882 57.4233 47 55.4783 47H8.52174C6.57674 47 5 45.3882 5 43.4V20.6C5 18.6118 6.57674 17 8.52174 17H55.4783ZM10.8111 21.8C10.1952 21.8 9.69565 22.278 9.69565 22.8676V41.1324C9.69565 41.722 10.1952 42.2 10.8111 42.2H11.9265C12.5423 42.1998 13.0408 41.7218 13.0408 41.1324V22.8676C13.0408 22.2782 12.5423 21.8002 11.9265 21.8H10.8111ZM14.7146 21.8C14.4068 21.8 14.1566 22.0387 14.1563 22.3332V41.6668C14.1566 41.9613 14.4068 42.2 14.7146 42.2C15.0222 42.1998 15.2714 41.9612 15.2717 41.6668V22.3332C15.2714 22.0388 15.0222 21.8002 14.7146 21.8ZM17.5026 21.8C16.8867 21.8 16.3872 22.278 16.3872 22.8676V41.1324C16.3872 41.722 16.8867 42.2 17.5026 42.2C18.1183 42.1998 18.6169 41.7218 18.6169 41.1324V22.8676C18.6169 22.2782 18.1183 21.8002 17.5026 21.8ZM21.9633 21.8C21.3474 21.8 20.8478 22.278 20.8478 22.8676V41.1324C20.8478 41.722 21.3474 42.2 21.9633 42.2H23.0787C23.6944 42.1998 24.193 41.7218 24.193 41.1324V22.8676C24.193 22.2782 23.6944 21.8002 23.0787 21.8H21.9633ZM26.4239 21.8C25.808 21.8 25.3085 22.278 25.3085 22.8676V41.1324C25.3085 41.722 25.808 42.2 26.4239 42.2H30.8846C31.5005 42.2 32 41.722 32 41.1324V22.8676C32 22.278 31.5005 21.8 30.8846 21.8H26.4239ZM36.4606 21.8C35.8448 21.8001 35.3452 22.2781 35.3452 22.8676V41.1324C35.3452 41.7219 35.8448 42.1999 36.4606 42.2C37.0766 42.2 37.5761 41.722 37.5761 41.1324V22.8676C37.5761 22.278 37.0766 21.8 36.4606 21.8ZM39.807 21.8C39.1911 21.8 38.6915 22.278 38.6915 22.8676V41.1324C38.6915 41.722 39.1911 42.2 39.807 42.2H40.9213C41.5372 42.2 42.0367 41.722 42.0367 41.1324V22.8676C42.0367 22.278 41.5372 21.8 40.9213 21.8H39.807ZM44.2676 21.8C43.6517 21.8 43.1522 22.278 43.1522 22.8676V41.1324C43.1522 41.722 43.6517 42.2 44.2676 42.2C44.8834 42.1999 45.3831 41.7219 45.3831 41.1324V22.8676C45.3831 22.2781 44.8834 21.8001 44.2676 21.8ZM47.6128 21.8C46.997 21.8001 46.4974 22.2781 46.4974 22.8676V41.1324C46.4974 41.7219 46.997 42.1999 47.6128 42.2H53.1889C53.8048 42.2 54.3043 41.722 54.3043 41.1324V22.8676C54.3043 22.278 53.8048 21.8 53.1889 21.8H47.6128Z" fill="#D9D9D9"/>
</svg>
