<svg width="64" height="64" viewBox="0 0 64 64" fill="none" xmlns="http://www.w3.org/2000/svg">
<path d="M46.5105 9.49657C47.1727 8.83452 48.2461 8.83444 48.9082 9.49657L54.5034 15.0917C55.1655 15.7539 55.1655 16.8278 54.5034 17.4899L40.3467 31.6461C40.1514 31.8414 40.1514 32.158 40.3467 32.3533L54.5034 46.51C55.1655 47.1722 55.1655 48.246 54.5034 48.9082L48.9082 54.5034C48.2461 55.1655 47.1722 55.1655 46.51 54.5034L32.3533 40.3466C32.158 40.1514 31.8414 40.1514 31.6462 40.3466L17.49 54.5034C16.8278 55.1655 15.7539 55.1655 15.0918 54.5034L9.49663 48.9082C8.83446 48.246 8.83446 47.1722 9.49663 46.51L23.6528 32.3532C23.8481 32.158 23.8481 31.8414 23.6528 31.6461L9.49663 17.4899C8.83446 16.8278 8.83446 15.7539 9.49663 15.0917L15.0918 9.49657C15.7539 8.83444 16.8273 8.83453 17.4894 9.49657L31.6462 23.6533C31.8414 23.8486 32.158 23.8486 32.3533 23.6533L46.5105 9.49657Z" fill="white"/>
</svg>
