<svg width="64" height="64" viewBox="0 0 64 64" fill="none" xmlns="http://www.w3.org/2000/svg">
<path d="M51.5835 52.8916C52.5077 52.8917 53.257 53.6413 53.2573 54.5654C53.2573 55.4899 52.5079 56.2401 51.5835 56.2402H46.0034C45.0789 56.2402 44.3296 55.49 44.3296 54.5654C44.3299 53.6412 45.0791 52.8916 46.0034 52.8916H51.5835ZM57.1636 52.8916C58.0878 52.8917 58.8371 53.6413 58.8374 54.5654C58.8374 55.4899 58.088 56.2401 57.1636 56.2402C56.2391 56.2402 55.4897 55.49 55.4897 54.5654C55.4901 53.6412 56.2393 52.8916 57.1636 52.8916ZM30.4702 9.39551C32.6494 7.21633 36.1836 7.21633 38.3628 9.39551L55.7231 26.7559C57.902 28.935 57.9021 32.4684 55.7231 34.6475L43.0972 47.2744L37.0708 52.8916H40.5864C41.5067 52.8916 42.2533 53.6384 42.2534 54.5586C42.2532 55.4787 41.5066 56.2246 40.5864 56.2246H31.4927C31.4268 56.227 31.3606 56.2285 31.2944 56.2285L24.5786 56.2275C23.1373 56.2275 21.7507 55.6705 20.7114 54.6719L15.4771 49.6416L6.79639 40.9609C4.68526 38.8497 4.61967 35.4678 6.59912 33.2773L6.79639 33.0693L30.4702 9.39551ZM9.16357 35.4375C8.29219 36.3092 8.29206 37.7222 9.16357 38.5938L17.8354 47.2656L23.0308 52.2588C23.4464 52.6581 24.0022 52.8798 24.5786 52.8799H31.2954C31.8599 52.8796 32.404 52.6652 32.8169 52.2803L38.2769 47.1895L17.8442 26.7568L9.16357 35.4375Z" fill="white"/>
</svg>
