<svg width="64" height="64" viewBox="0 0 64 64" fill="none" xmlns="http://www.w3.org/2000/svg">
<path fill-rule="evenodd" clip-rule="evenodd" d="M31.1061 8.08401C32.1761 7.37483 33.4329 6.99756 34.7173 7.00001L50.2631 7.02968C51.5319 7.0321 52.7156 7.66738 53.4174 8.72261L59.8667 18.4201C60.5685 19.4754 60.6955 20.811 60.2053 21.9793L54.1987 36.2934C53.7024 37.476 52.8663 38.4858 51.7963 39.195L25.8865 56.3673C24.1404 57.5246 21.7852 57.0497 20.6259 55.3066L4.13375 30.508C2.9745 28.7648 3.45023 26.4136 5.19633 25.2563L31.1061 8.08401ZM10.605 27.5182C9.35777 28.3448 9.01796 30.0243 9.846 31.2694L21.8403 49.3047C22.6684 50.5498 24.3507 50.889 25.5979 50.0624C26.8451 49.2358 27.1849 47.5564 26.3569 46.3113L14.3626 28.2759C13.5345 27.0308 11.8522 26.6916 10.605 27.5182ZM17.3798 23.028C16.1326 23.8547 15.7928 25.5341 16.6208 26.7792L28.6151 44.8145C29.4432 46.0596 31.1255 46.3989 32.3727 45.5722C33.6199 44.7456 33.9597 43.0662 33.1317 41.8211L21.1374 23.7857C20.3093 22.5406 18.627 22.2014 17.3798 23.028ZM24.1546 18.5379C22.9074 19.3645 22.5676 21.0439 23.3957 22.289L35.39 40.3244C36.218 41.5694 37.9003 41.9087 39.1475 41.082C40.3948 40.2554 40.7346 38.576 39.9065 37.3309L27.9122 19.2955C27.0842 18.0505 25.4019 17.7112 24.1546 18.5379ZM42.6576 14.07C39.4148 16.2193 38.5313 20.5858 40.6842 23.823C42.8371 27.0602 47.2111 27.9422 50.4539 25.793C53.6966 23.6438 54.5801 19.2773 52.4272 16.04C50.2744 12.8028 45.9003 11.9208 42.6576 14.07Z" fill="white"/>
</svg>
