<svg width="64" height="64" viewBox="0 0 64 64" fill="none" xmlns="http://www.w3.org/2000/svg">
<path d="M35.9546 8C36.783 8.00002 37.4546 8.67159 37.4546 9.5V26.0454C37.4546 26.3216 37.6784 26.5454 37.9546 26.5454H54.5C55.3284 26.5454 56 27.217 56 28.0454V35.9546C56 36.783 55.3284 37.4546 54.5 37.4546H37.9546C37.6784 37.4546 37.4546 37.6784 37.4546 37.9546V54.5C37.4546 55.3284 36.783 56 35.9546 56H28.0454C27.217 56 26.5454 55.3284 26.5454 54.5V37.9546C26.5454 37.6784 26.3216 37.4546 26.0454 37.4546H9.5C8.67159 37.4546 8.00003 36.783 8 35.9546V28.0454C8.00002 27.217 8.67159 26.5454 9.5 26.5454H26.0454C26.3216 26.5454 26.5454 26.3216 26.5454 26.0454V9.5C26.5454 8.67159 27.217 8.00002 28.0454 8H35.9546Z" fill="white"/>
</svg>
