<svg width="64" height="64" viewBox="0 0 64 64" fill="none" xmlns="http://www.w3.org/2000/svg">
<path d="M15.9463 6.93945C16.0646 6.93968 46.7492 6.99923 48.2812 6.96777C49.7497 6.96777 50.2432 7.75047 50.2432 8.92773V24.9531H55.3516L55.5391 24.958C57.4669 25.0557 58.9999 26.6495 59 28.6016V41.7373C58.9998 43.7521 57.3664 45.3856 55.3516 45.3857H50.2432V54.8721C50.2431 56.0811 49.2627 57.0615 48.0537 57.0615H15.9463C14.7373 57.0615 13.7569 56.0811 13.7568 54.8721V45.3857H8.64844C6.6963 45.3856 5.10244 43.8517 5.00488 41.9238L5 41.7373V28.6016C5.00009 26.6495 6.53314 25.0557 8.46094 24.958L8.64844 24.9531H13.7568V9.12891C13.7568 7.91985 14.7372 6.93945 15.9463 6.93945ZM17.7627 41C17.3416 41 17 41.1358 17 41.3027V53.6973C17 53.8642 17.3416 54 17.7627 54H18.5254C18.9463 53.9999 19.2871 53.8642 19.2871 53.6973V41.3027C19.2871 41.1358 18.9463 41.0001 18.5254 41H17.7627ZM20.4316 41C20.2211 41 20.0498 41.0679 20.0498 41.1514V53.8486C20.0498 53.9321 20.2211 54 20.4316 54C20.642 53.9999 20.8125 53.9321 20.8125 53.8486V41.1514C20.8125 41.0679 20.642 41.0001 20.4316 41ZM22.3379 41C21.9168 41 21.5752 41.1358 21.5752 41.3027V53.6973C21.5752 53.8642 21.9168 54 22.3379 54C22.7588 53.9999 23.0996 53.8642 23.0996 53.6973V41.3027C23.0996 41.1358 22.7588 41.0001 22.3379 41ZM25.3877 41C24.9666 41 24.625 41.1358 24.625 41.3027V53.6973C24.625 53.8642 24.9666 54 25.3877 54H26.1504C26.5713 53.9999 26.9121 53.8642 26.9121 53.6973V41.3027C26.9121 41.1358 26.5713 41.0001 26.1504 41H25.3877ZM28.4375 41C28.0164 41 27.6748 41.1358 27.6748 41.3027V53.6973C27.6748 53.8642 28.0164 54 28.4375 54H31.4873C31.9084 54 32.25 53.8642 32.25 53.6973V41.3027C32.25 41.1358 31.9084 41 31.4873 41H28.4375ZM35.2998 41C34.8788 41 34.5371 41.1358 34.5371 41.3027V53.6973C34.5371 53.8642 34.8788 54 35.2998 54C35.7209 54 36.0625 53.8642 36.0625 53.6973V41.3027C36.0625 41.1358 35.7209 41 35.2998 41ZM37.5879 41C37.1668 41 36.8252 41.1358 36.8252 41.3027V53.6973C36.8252 53.8642 37.1668 54 37.5879 54H38.3496C38.7707 54 39.1123 53.8642 39.1123 53.6973V41.3027C39.1123 41.1358 38.7707 41 38.3496 41H37.5879ZM40.6377 41C40.2166 41 39.875 41.1358 39.875 41.3027V53.6973C39.875 53.8642 40.2166 54 40.6377 54C41.0587 54 41.4004 53.8642 41.4004 53.6973V41.3027C41.4004 41.1358 41.0587 41 40.6377 41ZM42.9248 41C42.5038 41 42.1621 41.1358 42.1621 41.3027V53.6973C42.1621 53.8642 42.5038 54 42.9248 54H46.7373C47.1584 54 47.5 53.8642 47.5 53.6973V41.3027C47.5 41.1358 47.1584 41 46.7373 41H42.9248ZM8.64844 27.8721C8.24557 27.8722 7.91904 28.1987 7.91895 28.6016V41.7373C7.91919 42.14 8.24567 42.4667 8.64844 42.4668H13.7568V39.5479H12.2969C11.491 39.5476 10.8379 38.8938 10.8379 38.0879C10.8381 37.2821 11.4911 36.6291 12.2969 36.6289H51.7031C52.5089 36.6291 53.1619 37.2821 53.1621 38.0879C53.1621 38.8938 52.509 39.5476 51.7031 39.5479H50.2432V42.4668H55.3516C55.7543 42.4667 56.0808 42.14 56.0811 41.7373V28.6016C56.081 28.1987 55.7544 27.8722 55.3516 27.8721H8.64844ZM51.7031 30.791C52.5088 30.7912 53.1619 31.4443 53.1621 32.25C53.1621 33.0559 52.509 33.7097 51.7031 33.71H45.8652C45.0592 33.71 44.4053 33.056 44.4053 32.25C44.4055 31.4441 45.0593 30.791 45.8652 30.791H51.7031Z" fill="white"/>
</svg>
