<svg width="64" height="64" viewBox="0 0 64 64" fill="none" xmlns="http://www.w3.org/2000/svg">
<path d="M34.9385 7.19043C35.7451 7.19066 36.3986 7.84473 36.3975 8.65137L36.3828 18.127C36.3804 19.7425 37.6911 21.0523 39.3066 21.0498L48.7812 21.0361C49.5882 21.0349 50.2432 21.6882 50.2432 22.4951V24.7031H55.3516L55.5391 24.708C57.4669 24.8057 59 26.4004 59 28.3525V41.4873C59 43.5023 57.3665 45.1356 55.3516 45.1357H50.2432V54.6221C50.2432 55.8311 49.2628 56.8115 48.0537 56.8115H15.9463C14.7372 56.8115 13.7568 55.8311 13.7568 54.6221V45.1357H8.64844C6.69635 45.1356 5.10251 43.6027 5.00488 41.6748L5 41.4873V28.3525C5 26.4004 6.53307 24.8057 8.46094 24.708L8.64844 24.7031H13.7568V9.37891C13.757 8.16995 14.7373 7.19043 15.9463 7.19043H34.9385ZM8.64844 27.6221C8.24552 27.6222 7.91895 27.9496 7.91895 28.3525V41.4873C7.91898 41.8902 8.24554 42.2167 8.64844 42.2168H13.7568V39.2979H12.2969C11.4911 39.2976 10.838 38.6446 10.8379 37.8389C10.8379 37.033 11.491 36.3791 12.2969 36.3789H51.7031C52.509 36.3791 53.1621 37.033 53.1621 37.8389C53.162 38.6446 52.5089 39.2976 51.7031 39.2979H50.2432V42.2168H55.3516C55.7545 42.2167 56.081 41.8902 56.0811 41.4873V28.3525C56.0811 27.9496 55.7545 27.6222 55.3516 27.6221H8.64844ZM51.7031 30.541C52.509 30.5412 53.1621 31.1951 53.1621 32.001C53.162 32.8068 52.5089 33.4597 51.7031 33.46H45.8652C45.0593 33.46 44.4054 32.8069 44.4053 32.001C44.4053 31.1949 45.0592 30.541 45.8652 30.541H51.7031ZM39.2969 8.95215C39.2969 8.30207 40.0833 7.97597 40.543 8.43555L48.9971 16.8906C49.4568 17.3503 49.1316 18.1357 48.4814 18.1357H40.0273C39.6244 18.1357 39.2969 17.8092 39.2969 17.4062V8.95215Z" fill="white"/>
</svg>
