<svg width="64" height="64" viewBox="0 0 64 64" fill="none" xmlns="http://www.w3.org/2000/svg">
<path d="M18.3372 8.5C18.9409 8.5 19.4302 8.98936 19.4302 9.59302V17.2442C19.4302 19.0552 20.8983 20.5233 22.7093 20.5233H41.2907C43.1017 20.5233 44.5698 19.0552 44.5698 17.2442V9.63839C44.5698 9.12935 45.0813 8.78049 45.4413 9.14044L54.8596 18.5587C55.2695 18.9687 55.5 19.5251 55.5 20.1048V52.7674C55.5 54.2766 54.2766 55.5 52.7674 55.5H48.9419V36.3721C48.9419 35.4666 48.2078 34.7326 47.3023 34.7326H16.6977C15.7922 34.7326 15.0581 35.4666 15.0581 36.3721V55.5H11.2326C9.72341 55.5 8.5 54.2766 8.5 52.7674V11.2326C8.5 9.72341 9.72341 8.5 11.2326 8.5H18.3372Z" fill="white"/>
<path d="M45.6628 55.5H18.3372V45.1163H45.6628V55.5Z" fill="white"/>
<path d="M45.6628 41.8372H18.3372V38.0116H45.6628V41.8372Z" fill="white"/>
<path d="M40.1977 8.5C40.8013 8.5 41.2907 8.98936 41.2907 9.59302V16.1512C41.2907 16.7548 40.8013 17.2442 40.1977 17.2442H23.8023C23.1987 17.2442 22.7093 16.7548 22.7093 16.1512V9.59302C22.7093 8.98936 23.1987 8.5 23.8023 8.5H40.1977Z" fill="white"/>
</svg>
