<svg width="64" height="64" viewBox="0 0 64 64" fill="none" xmlns="http://www.w3.org/2000/svg">
<path d="M12.4644 40.9286C12.9969 40.9286 13.4287 41.3604 13.4287 41.8929V50.5713H22.1071C22.6396 50.5713 23.0714 51.0031 23.0714 51.5356V56.0356C23.0714 56.5682 22.6396 57 22.1071 57H7.96436C7.4318 57 7 56.5682 7 56.0356V41.8929C7 41.3604 7.4318 40.9286 7.96436 40.9286H12.4644Z" fill="white"/>
<path d="M56.0356 40.9286C56.5682 40.9286 57 41.3604 57 41.8929V56.0356C57 56.0523 56.9995 56.0689 56.9987 56.0853C56.9729 56.5948 56.5516 57 56.0356 57H41.8929C41.3604 57 40.9286 56.5682 40.9286 56.0356V51.5356C40.9286 51.0031 41.3604 50.5713 41.8929 50.5713H50.5713V41.8929C50.5713 41.3604 51.0031 40.9286 51.5356 40.9286H56.0356Z" fill="white"/>
<path d="M57 36.4643H7V27.5357H57V36.4643Z" fill="white"/>
<path d="M22.1071 7C22.6396 7 23.0714 7.4318 23.0714 7.96436V12.4644C23.0714 12.9969 22.6396 13.4287 22.1071 13.4287H13.4287V22.1071C13.4287 22.6396 12.9969 23.0714 12.4644 23.0714H7.96436C7.4318 23.0714 7 22.6396 7 22.1071V7.96436C7 7.4318 7.4318 7 7.96436 7H22.1071Z" fill="white"/>
<path d="M56.0356 7C56.5682 7 57 7.4318 57 7.96436V22.1071C57 22.6396 56.5682 23.0714 56.0356 23.0714H51.5356C51.0031 23.0714 50.5713 22.6396 50.5713 22.1071V13.4287H41.8929C41.3604 13.4287 40.9286 12.9969 40.9286 12.4644V7.96436C40.9286 7.4318 41.3604 7 41.8929 7H56.0356Z" fill="white"/>
</svg>
