<svg width="64" height="64" viewBox="0 0 64 64" fill="none" xmlns="http://www.w3.org/2000/svg">
<path d="M16.6699 29.584C17.4512 29.5842 18.0848 30.2177 18.085 30.999V45.0654C18.085 45.8939 18.7565 46.5654 19.585 46.5654H44.415C45.2435 46.5654 45.915 45.8939 45.915 45.0654V30.999C45.9152 30.2176 46.5496 29.584 47.3311 29.584H53.9346C54.716 29.584 55.3495 30.2176 55.3496 30.999V54.5C55.3496 55.3284 54.678 56 53.8496 56H10.1504C9.32196 56 8.65039 55.3284 8.65039 54.5V30.999C8.65053 30.2177 9.28405 29.5841 10.0654 29.584H16.6699ZM31.1406 8.41406C31.6932 7.86176 32.589 7.86166 33.1416 8.41406L43.0879 18.3604C43.9798 19.2524 43.3465 20.7778 42.085 20.7764L37.2414 20.77C37.0742 20.7697 36.9531 20.9266 36.9531 21.0938V36.6602C36.9529 37.4415 36.3194 38.0751 35.5381 38.0752H28.9336C28.1523 38.075 27.5188 37.4414 27.5186 36.6602V21.0938C27.5186 20.9214 27.3937 20.7586 27.2213 20.7584L22.2168 20.7529C20.9569 20.7515 20.3269 19.2278 21.2178 18.3369L31.1406 8.41406Z" fill="white"/>
</svg>
